<?xml version="1.0" encoding="utf-8"?>
<!-- Generator: Adobe Illustrator 16.0.0, SVG Export Plug-In . SVG Version: 6.00 Build 0)  -->
<!DOCTYPE svg PUBLIC "-//W3C//DTD SVG 1.1//EN" "http://www.w3.org/Graphics/SVG/1.1/DTD/svg11.dtd">
<svg version="1.1" id="Layer_1" xmlns="http://www.w3.org/2000/svg" xmlns:xlink="http://www.w3.org/1999/xlink" x="0px" y="0px"
	 width="129.25px" height="47.945px" viewBox="0 0 129.25 47.945" enable-background="new 0 0 129.25 47.945" xml:space="preserve">
<g>
	<path fill="#E8EAEB" d="M46.903,36.884c0-0.005-0.002-0.007-0.003-0.012l-9.552-23.646c-9.239-3.029-11.845,10.747-11.845,10.747
		l7.364,18.073c0.001,0.005,0.003,0.009,0.004,0.011c1.532,4.159,5.918,6.37,9.791,4.939C46.541,45.566,48.438,41.039,46.903,36.884
		z"/>
	<g>
		<g>
			<path id="SVGID_6_" fill="#FFFFFF" d="M14.501,7.23l-0.006-0.005L1.825,36.51l0.004,0.003c-1.568,3.939,0.163,8.48,3.944,10.235
				c3.784,1.754,8.208,0.064,10.003-3.771l0.005,0.002l8.54-19.907c1.857-4.095,4.298-13.639,12.477-10.865
				c0,0-3.632-11.704-11.788-11.704C18.79,0.506,16.15,3.638,14.501,7.23"/>
		</g>
	</g>
	<path fill="#E8EAEB" d="M82.347,36.884c0-0.005,0.002-0.007,0.002-0.012l9.553-23.646c9.239-3.029,11.846,10.747,11.846,10.747
		l-7.365,18.073c0,0.005-0.002,0.009-0.004,0.011c-1.53,4.159-5.918,6.37-9.791,4.939C82.71,45.566,80.812,41.039,82.347,36.884z"/>
	<g>
		<g>
			<path id="SVGID_4_" fill="#FFFFFF" d="M114.749,7.23c-1.649-3.592-4.289-6.725-10.508-6.726
				c-8.156,0-11.787,11.704-11.787,11.704c8.178-2.773,10.619,6.771,12.477,10.865l8.539,19.907l0.005-0.002
				c1.795,3.835,6.219,5.523,10.003,3.771c3.781-1.755,5.512-6.296,3.943-10.235l0.004-0.003l-12.67-29.286L114.749,7.23"/>
		</g>
	</g>
	<path fill="#E8EAEB" d="M87.202,11.062c0,0.005-0.002,0.007-0.002,0.011L77.646,34.72c-9.239,3.028-11.846-10.747-11.846-10.747
		L73.165,5.9c0-0.005,0.002-0.009,0.004-0.011c1.531-4.159,5.918-6.37,9.791-4.94C86.837,2.38,88.736,6.905,87.202,11.062z"/>
	<g>
		<g>
			<path id="SVGID_8_" fill="#FFFFFF" d="M54.798,40.716c1.649,3.592,4.289,6.725,10.508,6.726c8.155,0,11.787-11.705,11.787-11.705
				c-8.179,2.774-10.619-6.771-12.477-10.864L56.079,4.966l-0.005,0.002c-1.795-3.835-6.219-5.523-10.003-3.771
				c-3.781,1.755-5.512,6.296-3.943,10.236l-0.004,0.003l12.67,29.284L54.798,40.716"/>
		</g>
	</g>
</g>
</svg>
