<?xml version="1.0" encoding="utf-8"?>
<!-- Generator: Adobe Illustrator 19.2.1, SVG Export Plug-In . SVG Version: 6.00 Build 0)  -->
<svg version="1.1" id="Layer_1" xmlns="http://www.w3.org/2000/svg" xmlns:xlink="http://www.w3.org/1999/xlink" x="0px" y="0px"
	 viewBox="0 0 35 16" style="enable-background:new 0 0 35 16;" xml:space="preserve">
<style type="text/css">
	.st0{fill:url(#SVGID_2_);}
	.st1{fill:url(#SVGID_3_);}
	.st2{fill:url(#SVGID_5_);}
	.st3{fill:url(#SVGID_6_);}
	.st4{fill:url(#SVGID_8_);}
	.st5{fill:url(#SVGID_9_);}
</style>
<g>
	<g>
		<g>
			
				<radialGradient id="SVGID_2_" cx="26.0188" cy="44.7975" r="6.6277" gradientTransform="matrix(1 0 0 -1 0 49.28)" gradientUnits="userSpaceOnUse">
				<stop  offset="0" style="stop-color:#3A3890"/>
				<stop  offset="0.1474" style="stop-color:#384196"/>
				<stop  offset="0.6866" style="stop-color:#305DA9"/>
				<stop  offset="1" style="stop-color:#2D67B0"/>
			</radialGradient>
			<path id="SVGID_1_" class="st0" d="M25.1,4.8l-2.7,6.6l0,0c-0.4,1.2,0.1,2.4,1.2,2.8c1.1,0.4,2.3-0.2,2.7-1.4l0,0l3.1-7.6
				c-0.4-0.5-1.4-0.6-2.3-0.6C26.1,4.6,25.1,4.8,25.1,4.8"/>
		</g>
	</g>
	<g>
		<g>
			
				<radialGradient id="SVGID_3_" cx="33.0351" cy="36.6429" r="8.9363" gradientTransform="matrix(1 0 0 -1 0 49.28)" gradientUnits="userSpaceOnUse">
				<stop  offset="0" style="stop-color:#3A3890"/>
				<stop  offset="0.8546" style="stop-color:#2D67B0"/>
			</radialGradient>
			<path id="SVGID_4_" class="st1" d="M25.1,4.8c1.7-0.3,2.3,0.2,2.8,1.3l3.1,7l0,0c0.5,1,1.7,1.5,2.8,1c1.1-0.5,1.5-1.7,1.1-2.8
				l0,0l-3.5-7.9l0,0c-0.5-1-1.2-1.8-2.9-1.8C26.1,1.6,25.1,4.8,25.1,4.8"/>
		</g>
	</g>
	<g>
		<g>
			
				<radialGradient id="SVGID_5_" cx="8.1446" cy="46.2599" r="11.3426" gradientTransform="matrix(1 0 0 -1 0 49.28)" gradientUnits="userSpaceOnUse">
				<stop  offset="0" style="stop-color:#F1951C"/>
				<stop  offset="1" style="stop-color:#F4E72C"/>
			</radialGradient>
			<path id="SVGID_7_" class="st2" d="M5.6,5.2l3.1,7.6l0,0c0.4,1.2,1.6,1.8,2.7,1.4c1.1-0.4,1.6-1.7,1.2-2.8l0,0L9.9,4.8
				c0,0-1-0.2-2.1-0.2C7,4.6,6,4.7,5.6,5.2"/>
		</g>
	</g>
	<g>
		<g>
			
				<radialGradient id="SVGID_6_" cx="2.0476" cy="37.0961" r="9.9818" gradientTransform="matrix(1 0 0 -1 0 49.28)" gradientUnits="userSpaceOnUse">
				<stop  offset="0" style="stop-color:#F1951C"/>
				<stop  offset="1" style="stop-color:#F4E72C"/>
			</radialGradient>
			<path id="SVGID_10_" class="st3" d="M3.7,3.4L3.7,3.4l-3.5,7.9l0,0c-0.4,1.1,0.1,2.3,1.1,2.8c1.1,0.5,2.3,0,2.8-1l0,0l3.1-7
				c0.5-1.1,1-1.6,2.8-1.3c0,0-1-3.2-3.3-3.2C4.9,1.6,4.2,2.5,3.7,3.4"/>
		</g>
	</g>
	<g>
		<g>
			
				<radialGradient id="SVGID_8_" cx="18.5848" cy="44.96" r="8.3397" gradientTransform="matrix(1 0 0 -1 0 49.28)" gradientUnits="userSpaceOnUse">
				<stop  offset="0" style="stop-color:#E5217D"/>
				<stop  offset="1" style="stop-color:#A90165"/>
			</radialGradient>
			<path id="SVGID_13_" class="st4" d="M19.8,3.1L19.8,3.1l-3.1,7.7c1,1.1,4.4,0.4,4.4,0.4l2.7-6.6l0,0c0.4-1.2-0.1-2.4-1.2-2.8
				c-0.2-0.1-0.4-0.1-0.7-0.1C21,1.6,20.2,2.2,19.8,3.1"/>
		</g>
	</g>
	<g>
		<g>
			
				<radialGradient id="SVGID_9_" cx="-84.816" cy="677.7195" r="10.2234" gradientTransform="matrix(4.500007e-11 1 1.005 -4.522602e-11 -667.8677 88.5615)" gradientUnits="userSpaceOnUse">
				<stop  offset="0" style="stop-color:#A90165"/>
				<stop  offset="1" style="stop-color:#DD1D79"/>
			</radialGradient>
			<path id="SVGID_16_" class="st5" d="M12.4,1.9c-1.1,0.5-1.5,1.7-1.1,2.8l0,0l3.5,7.9l0,0c0.5,1,1.2,1.8,2.9,1.8
				c2.3,0,3.3-3.2,3.3-3.2c-1.7,0.3-2.3-0.2-2.8-1.3l-3.1-7l0,0c-0.4-0.8-1.1-1.2-1.9-1.2C13,1.7,12.7,1.7,12.4,1.9"/>
		</g>
	</g>
</g>
</svg>
