<?xml version="1.0" encoding="utf-8"?>
<!-- Generator: Adobe Illustrator 19.2.1, SVG Export Plug-In . SVG Version: 6.00 Build 0)  -->
<svg version="1.1" id="Capa_1" xmlns="http://www.w3.org/2000/svg" xmlns:xlink="http://www.w3.org/1999/xlink" x="0px" y="0px"
	 viewBox="0 0 18 21.6" style="enable-background:new 0 0 18 21.6;" xml:space="preserve">
<style type="text/css">
	.st0{fill:#99DBF7;}
</style>
<path class="st0" d="M9.2,4.4c-0.3,0.3-0.3,0.7,0,0.9l4.8,4.8H2.4c-0.4,0-0.7,0.3-0.7,0.7s0.3,0.7,0.7,0.7H14l-4.8,4.8
	c-0.3,0.3-0.3,0.7,0,0.9s0.7,0.3,0.9,0l5.9-5.9c0.1-0.1,0.1-0.1,0.1-0.2s0.1-0.2,0.1-0.3c0-0.1,0-0.2-0.1-0.3c0-0.1-0.1-0.2-0.1-0.2
	l-5.9-5.9C9.8,4.2,9.4,4.2,9.2,4.4L9.2,4.4z"/>
</svg>
