<?xml version="1.0" encoding="utf-8"?>
<!-- Generator: Adobe Illustrator 19.2.1, SVG Export Plug-In . SVG Version: 6.00 Build 0)  -->
<svg version="1.1" xmlns="http://www.w3.org/2000/svg" xmlns:xlink="http://www.w3.org/1999/xlink" x="0px" y="0px"
	 viewBox="0 0 443.7 389.8" style="enable-background:new 0 0 443.7 389.8;" xml:space="preserve">
<style type="text/css">
	.st0{fill:url(#SVGID_1_);}
	.st1{fill:url(#SVGID_2_);}
	.st2{fill:url(#SVGID_3_);}
	.st3{fill:url(#SVGID_4_);}
	.st4{fill:url(#SVGID_5_);}
	.st5{fill:url(#SVGID_6_);}
	.st6{fill:url(#SVGID_7_);}
	.st7{fill:url(#SVGID_8_);}
	.st8{fill:url(#SVGID_9_);}
	.st9{fill:url(#SVGID_10_);}
	.st10{fill:url(#SVGID_11_);}
	.st11{fill:url(#SVGID_12_);}
	.st12{fill:url(#SVGID_13_);}
	.st13{fill:url(#SVGID_14_);}
	.st14{fill:url(#SVGID_15_);}
	.st15{fill:url(#SVGID_16_);}
	.st16{opacity:0.5;}
	.st17{opacity:0.5;clip-path:url(#SVGID_18_);fill:url(#SVGID_19_);}
	.st18{clip-path:url(#SVGID_21_);}
	.st19{fill:url(#SVGID_22_);}
	.st20{fill:url(#SVGID_23_);}
	.st21{fill:none;stroke:#00A6EB;stroke-width:10;stroke-miterlimit:10;}
	.st22{fill:url(#SVGID_24_);}
	.st23{fill:#E0CC95;}
	.st24{opacity:0.1;fill:url(#SVGID_25_);}
	.st25{fill:#D4BD85;}
	.st26{fill:url(#SVGID_26_);}
	.st27{fill:url(#SVGID_27_);}
	.st28{fill:url(#SVGID_28_);}
	.st29{fill:url(#SVGID_29_);}
	.st30{fill:url(#SVGID_30_);}
	.st31{fill:url(#SVGID_31_);}
	.st32{fill:url(#SVGID_32_);}
	.st33{fill:url(#SVGID_33_);}
	.st34{fill:url(#SVGID_34_);}
	.st35{fill:url(#SVGID_35_);}
	.st36{fill:url(#SVGID_36_);}
	.st37{fill:url(#SVGID_37_);}
	.st38{fill:url(#SVGID_38_);}
	.st39{fill:url(#SVGID_39_);}
	.st40{fill:#D1D1D1;}
	.st41{fill:#C4C4C4;}
	.st42{fill:#DDDDDD;}
	.st43{fill:#D3D3D3;}
	.st44{fill:#E6E6E6;}
	.st45{fill:#DBDBDB;}
	.st46{fill:#EAEAEA;}
	.st47{fill:#E2E2E2;}
	.st48{fill:url(#SVGID_40_);}
	.st49{fill:#1B1E1E;}
	.st50{fill:url(#SVGID_41_);}
	.st51{fill:url(#SVGID_42_);}
	.st52{fill:url(#SVGID_43_);}
	.st53{opacity:0.5;fill:url(#SVGID_44_);}
	.st54{fill:url(#SVGID_45_);}
	.st55{opacity:0.5;fill:url(#SVGID_46_);}
	.st56{opacity:0.5;fill:url(#SVGID_47_);}
	.st57{opacity:0.5;fill:url(#SVGID_48_);}
	.st58{opacity:0.5;fill:url(#SVGID_49_);}
	.st59{fill:url(#SVGID_50_);}
	.st60{fill:url(#SVGID_51_);}
	.st61{fill:url(#SVGID_52_);}
	.st62{fill:url(#SVGID_53_);}
</style>
<g id="Universo">
	
		<radialGradient id="SVGID_1_" cx="43.9842" cy="308.2626" r="258.9178" gradientTransform="matrix(0.9973 -7.287459e-02 7.287459e-02 0.9973 -14.4378 14.1434)" gradientUnits="userSpaceOnUse">
		<stop  offset="6.336219e-02" style="stop-color:#00FFFF"/>
		<stop  offset="0.1356" style="stop-color:#01E9EC"/>
		<stop  offset="0.3669" style="stop-color:#04A9B5"/>
		<stop  offset="0.5772" style="stop-color:#067689"/>
		<stop  offset="0.7595" style="stop-color:#085169"/>
		<stop  offset="0.9065" style="stop-color:#093A56"/>
		<stop  offset="1" style="stop-color:#09324F"/>
	</radialGradient>
	<circle class="st0" cx="185.4" cy="202.6" r="177.8"/>
	
		<radialGradient id="SVGID_2_" cx="347.7205" cy="282.449" r="5.6894" gradientTransform="matrix(0.7071 0.7071 -0.7071 0.7071 114.1165 -339.6488)" gradientUnits="userSpaceOnUse">
		<stop  offset="0" style="stop-color:#FFFFFF"/>
		<stop  offset="1" style="stop-color:#FFFFFF;stop-opacity:0"/>
	</radialGradient>
	<circle class="st1" cx="160.3" cy="105.9" r="5.7"/>
	
		<radialGradient id="SVGID_3_" cx="537.9056" cy="286.9186" r="3.936" gradientTransform="matrix(0.7071 0.7071 -0.7071 0.7071 114.1165 -339.6488)" gradientUnits="userSpaceOnUse">
		<stop  offset="0" style="stop-color:#FFFFFF"/>
		<stop  offset="1" style="stop-color:#FFFFFF;stop-opacity:0"/>
	</radialGradient>
	<circle class="st2" cx="291.6" cy="243.6" r="3.9"/>
	
		<radialGradient id="SVGID_4_" cx="589.7291" cy="315.5042" r="3.936" gradientTransform="matrix(0.7071 0.7071 -0.7071 0.7071 114.1165 -339.6488)" gradientUnits="userSpaceOnUse">
		<stop  offset="0" style="stop-color:#FFFFFF"/>
		<stop  offset="1" style="stop-color:#FFFFFF;stop-opacity:0"/>
	</radialGradient>
	<circle class="st3" cx="308" cy="300.4" r="3.9"/>
	
		<radialGradient id="SVGID_5_" cx="568.4734" cy="348.6992" r="2.5223" gradientTransform="matrix(0.7071 0.7071 -0.7071 0.7071 114.1165 -339.6488)" gradientUnits="userSpaceOnUse">
		<stop  offset="0" style="stop-color:#FFFFFF"/>
		<stop  offset="1" style="stop-color:#FFFFFF;stop-opacity:0"/>
	</radialGradient>
	<circle class="st4" cx="269.5" cy="308.9" r="2.5"/>
	
		<radialGradient id="SVGID_6_" cx="533.4424" cy="326.0932" r="2.4173" gradientTransform="matrix(0.7071 0.7071 -0.7071 0.7071 114.1165 -339.6488)" gradientUnits="userSpaceOnUse">
		<stop  offset="0" style="stop-color:#FFFFFF"/>
		<stop  offset="1" style="stop-color:#FFFFFF;stop-opacity:0"/>
	</radialGradient>
	<circle class="st5" cx="260.7" cy="268.1" r="2.4"/>
	
		<radialGradient id="SVGID_7_" cx="301.8808" cy="285.585" r="2.4173" gradientTransform="matrix(-0.7834 -0.6216 0.6216 -0.7834 184.6158 487.1069)" gradientUnits="userSpaceOnUse">
		<stop  offset="0" style="stop-color:#FFFFFF"/>
		<stop  offset="1" style="stop-color:#FFFFFF;stop-opacity:0"/>
	</radialGradient>
	<circle class="st6" cx="125.6" cy="75.8" r="2.4"/>
	
		<radialGradient id="SVGID_8_" cx="304.209" cy="239.6759" r="2.4173" gradientTransform="matrix(-0.7834 -0.6216 0.6216 -0.7834 184.6158 487.1069)" gradientUnits="userSpaceOnUse">
		<stop  offset="0" style="stop-color:#FFFFFF"/>
		<stop  offset="1" style="stop-color:#FFFFFF;stop-opacity:0"/>
	</radialGradient>
	<circle class="st7" cx="95.3" cy="110.3" r="2.4"/>
	
		<radialGradient id="SVGID_9_" cx="498.0557" cy="268.5618" r="2.4173" gradientTransform="matrix(0.7071 0.7071 -0.7071 0.7071 114.1165 -339.6488)" gradientUnits="userSpaceOnUse">
		<stop  offset="0" style="stop-color:#FFFFFF"/>
		<stop  offset="1" style="stop-color:#FFFFFF;stop-opacity:0"/>
	</radialGradient>
	<circle class="st8" cx="276.4" cy="202.4" r="2.4"/>
	
		<radialGradient id="SVGID_10_" cx="511.5065" cy="231.7152" r="2.4173" gradientTransform="matrix(0.7071 0.7071 -0.7071 0.7071 114.1165 -339.6488)" gradientUnits="userSpaceOnUse">
		<stop  offset="0" style="stop-color:#FFFFFF"/>
		<stop  offset="1" style="stop-color:#FFFFFF;stop-opacity:0"/>
	</radialGradient>
	<circle class="st9" cx="312" cy="185.9" r="2.4"/>
	
		<radialGradient id="SVGID_11_" cx="565.4371" cy="255.7676" r="2.4173" gradientTransform="matrix(0.7071 0.7071 -0.7071 0.7071 114.1165 -339.6488)" gradientUnits="userSpaceOnUse">
		<stop  offset="0" style="stop-color:#FFFFFF"/>
		<stop  offset="1" style="stop-color:#FFFFFF;stop-opacity:0"/>
	</radialGradient>
	<circle class="st10" cx="333.1" cy="241" r="2.4"/>
	
		<radialGradient id="SVGID_12_" cx="311.7777" cy="241.9225" r="5.0041" gradientTransform="matrix(0.7071 0.7071 -0.7071 0.7071 114.1165 -339.6488)" gradientUnits="userSpaceOnUse">
		<stop  offset="0" style="stop-color:#FFFFFF"/>
		<stop  offset="1" style="stop-color:#FFFFFF;stop-opacity:0"/>
	</radialGradient>
	<circle class="st11" cx="163.5" cy="51.9" r="5"/>
	
		<radialGradient id="SVGID_13_" cx="291.0795" cy="369.5408" r="3.6055" gradientTransform="matrix(0.7071 0.7071 -0.7071 0.7071 114.1165 -339.6488)" gradientUnits="userSpaceOnUse">
		<stop  offset="0" style="stop-color:#FFFFFF"/>
		<stop  offset="1" style="stop-color:#FFFFFF;stop-opacity:0"/>
	</radialGradient>
	<circle class="st12" cx="58.6" cy="127.5" r="3.6"/>
	
		<radialGradient id="SVGID_14_" cx="390.3641" cy="188.8627" r="3.6055" gradientTransform="matrix(0.7071 0.7071 -0.7071 0.7071 114.1165 -339.6488)" gradientUnits="userSpaceOnUse">
		<stop  offset="0" style="stop-color:#FFFFFF"/>
		<stop  offset="1" style="stop-color:#FFFFFF;stop-opacity:0"/>
	</radialGradient>
	<circle class="st13" cx="256.6" cy="69.9" r="3.6"/>
	
		<radialGradient id="SVGID_15_" cx="347.7205" cy="232.3521" r="2.6223" gradientTransform="matrix(0.7071 0.7071 -0.7071 0.7071 114.1165 -339.6488)" gradientUnits="userSpaceOnUse">
		<stop  offset="0" style="stop-color:#FFFFFF"/>
		<stop  offset="1" style="stop-color:#FFFFFF;stop-opacity:0"/>
	</radialGradient>
	<circle class="st14" cx="195.7" cy="70.5" r="2.6"/>
	
		<radialGradient id="SVGID_16_" cx="411.9224" cy="237.0809" r="2.6223" gradientTransform="matrix(0.7071 0.7071 -0.7071 0.7071 114.1165 -339.6488)" gradientUnits="userSpaceOnUse">
		<stop  offset="0" style="stop-color:#FFFFFF"/>
		<stop  offset="1" style="stop-color:#FFFFFF;stop-opacity:0"/>
	</radialGradient>
	<circle class="st15" cx="237.7" cy="119.3" r="2.6"/>
</g>
<g id="Ozon">
	<g class="st16">
		<defs>
			
				<ellipse id="SVGID_17_" transform="matrix(0.9973 -7.287459e-02 7.287459e-02 0.9973 -14.4378 14.1434)" class="st16" cx="186.6" cy="204.9" rx="177.8" ry="177.8"/>
		</defs>
		<clipPath id="SVGID_18_">
			<use xlink:href="#SVGID_17_"  style="overflow:visible;"/>
		</clipPath>
		
			<radialGradient id="SVGID_19_" cx="111.6365" cy="289.136" r="139.2091" gradientTransform="matrix(-0.9578 0.2873 -0.2941 -0.9803 303.5989 540.504)" gradientUnits="userSpaceOnUse">
			<stop  offset="0.8815" style="stop-color:#ED1E79;stop-opacity:0"/>
			<stop  offset="0.8824" style="stop-color:#E9217B;stop-opacity:3.558302e-03"/>
			<stop  offset="0.8992" style="stop-color:#AC5B9E;stop-opacity:6.684954e-02"/>
			<stop  offset="0.9158" style="stop-color:#788DBB;stop-opacity:0.1297"/>
			<stop  offset="0.932" style="stop-color:#4DB6D4;stop-opacity:0.1906"/>
			<stop  offset="0.9475" style="stop-color:#2BD6E7;stop-opacity:0.2492"/>
			<stop  offset="0.9623" style="stop-color:#13EDF4;stop-opacity:0.3049"/>
			<stop  offset="0.9759" style="stop-color:#05FAFC;stop-opacity:0.3565"/>
			<stop  offset="0.9874" style="stop-color:#00FFFF;stop-opacity:0.4"/>
		</radialGradient>
		<path class="st17" d="M239.8,262.1c14.5,71.6-30.9,141.2-101.5,155.5S-1.1,385.3-15.5,313.7C-30.6,238.9,0,175.5,85.9,158.2
			C156.4,143.9,225.3,190.4,239.8,262.1z"/>
	</g>
</g>
<g id="Earth">
	<g>
		<defs>
			
				<ellipse id="SVGID_20_" transform="matrix(0.9973 -7.287459e-02 7.287459e-02 0.9973 -14.4378 14.1434)" cx="186.6" cy="204.9" rx="177.8" ry="177.8"/>
		</defs>
		<clipPath id="SVGID_21_">
			<use xlink:href="#SVGID_20_"  style="overflow:visible;"/>
		</clipPath>
		<g class="st18">
			<radialGradient id="SVGID_22_" cx="159.9601" cy="234.2938" r="232.6482" gradientUnits="userSpaceOnUse">
				<stop  offset="2.012950e-02" style="stop-color:#084C88"/>
				<stop  offset="0.155" style="stop-color:#08467B"/>
				<stop  offset="0.47" style="stop-color:#093B63"/>
				<stop  offset="0.7601" style="stop-color:#093454"/>
				<stop  offset="1" style="stop-color:#09324F"/>
			</radialGradient>
			<circle class="st19" cx="104.8" cy="289.9" r="117"/>
			<radialGradient id="SVGID_23_" cx="95.1304" cy="288.8859" r="96.7848" gradientUnits="userSpaceOnUse">
				<stop  offset="0" style="stop-color:#39B54A"/>
				<stop  offset="0.3078" style="stop-color:#37B249"/>
				<stop  offset="0.5129" style="stop-color:#30A947"/>
				<stop  offset="0.6881" style="stop-color:#259A43"/>
				<stop  offset="0.8455" style="stop-color:#16853E"/>
				<stop  offset="0.9913" style="stop-color:#016A37"/>
				<stop  offset="1" style="stop-color:#006837"/>
			</radialGradient>
			<path class="st20" d="M124.9,393.7c1.4-2.9,2.6-6,4.7-8.5c1.1-1.2,0.7-3.7,2.7-4c3-0.7,7-0.3,8.2-3.9c-0.4-0.4-0.8-0.9-1.2-1.3
				c1.9,0,3.7-0.2,5.5-0.2c4.2-5.5,9.2-10.4,12.2-16.6c1.7-3.3,6.1-3.3,8.3-6c1.9-2.1,4.2-4,5.5-6.6c0.9-3.6-0.4-7.9,2.1-11.1
				c2.5-2.8,5.8-5.3,6.4-9.2c0.7-2.4-0.8-4.8-2.9-5.7c-7.1-3.6-15.7-2.9-22.4-7.5c-2-1.9-1.3-5.1-3.1-7.2c-2.3-3.1-6.4-3.6-9.8-4.7
				c-2.8-0.7-4.7-3-7.3-4.1c-6.2-3.1-13.2-4.6-20.1-4.2c-2.7,0.1-5.5,1.2-6.9,3.6c-0.7,1.5-2.4,0.5-3.5,0.1
				c-5.5-2.7-11.5-5.5-14.9-11c-0.7-1.3-2.1-1.9-3.4-2.5c0.7-3,3.4-5.2,3.1-8.5c-3.5-1.2-7,0.7-10.6,0.3c-2.2-0.3-1.9-3-2.2-4.7
				c-0.4-3.3,0.3-6.9,3.2-8.9c3.6-2.6,8.3-5.4,12.8-3.4c3.8,1.6,3.8,6.7,7.4,8.5c2.1-3.5-0.6-7.5-0.6-11.2c2-3,5.4-4.6,8-7.1
				c1.9-1.5-0.8-3.9,0.8-5.5c3.2-4.4,6.5-8.9,11.3-11.6c3.2-1.9,6.9-0.2,10.4-0.5c2.7-0.9,4.1-3.7,6.6-4.9c3.6-2.1,8-1.8,11.9-1.1
				c-1.3-2.6-2.5-6.8-5.9-7.1c-2.7,1-3.4,4.7-6.4,5.6c-2.8,1.6-5.5-0.7-7.4-2.6c-3.3,1.3-6.6,2.6-10.1,3.3c7.2-3.2,15-4.6,22-8.2
				c1-0.6,2.9-1.6,2-3c-2.2-4-6.9-5.8-9.2-9.8c-1.5-2.1-1.6-5-3.6-6.7c-2.8-1.2-5.7,1.7-8.5,0.4c-3.5-1.7-6-5.3-9.9-6.1
				c-2.2-0.5-5.1-1-6.8,0.8c-1.2,3.9,1.6,7.5,1.8,11.3c-1.5,3-2.4,6.2-3.4,9.4c-0.7,2.3-3.1,3.3-5.3,2.8c-0.1-2.2,1.2-5.5-1.6-6.6
				c-5.2-2.1-10.7-3.8-15.8-6.1c-3.4-1.2-6.8-4.9-4.3-8.5c3.2-4.4,8.5-6.5,12.6-9.8c0.4-0.3,0.7-0.7,1-1c4-0.5,7.9-1.2,11.9-1.2
				c-0.1,0-0.3,0-0.4,0c-59.5,0-99.5,62.9-86.8,45.3c-0.4,1.5-0.7,3-0.8,4.5c-0.4,5.9,0.7,12.3,4.6,16.8c2,2.7,5.6,3.5,7.5,6.3
				c2.4,3.4,7.4,3.4,9.8,6.9c2.2,3,4.5,5.8,6.8,8.7c1.6,2,2,5.1,4.6,6.4c5.8,2.9,12.8,2.1,18.3,5.8c9.5,5.5,18.7,11.9,29,15.9
				c3.5,1.7,8.8-0.2,11.1,3.7c1.7,4.7-3.8,7.5-4.6,11.7c-0.6,2.7,0.5,5.8-1.5,8c2.1,5.3,5.6,9.8,8.7,14.5c2.6,3.8,7.2,5.5,9.9,9.1
				c1.8,3.5,0.8,7.6,0.5,11.4c-1.4,7.8-0.9,16.1-3.9,23.5c-2.5,5.1,0.1,11.1-1.9,16.1c-3.2,0.3-6.4,0.9-9.7,1"/>
		</g>
	</g>
</g>
<g id="border">
	
		<ellipse transform="matrix(0.9973 -7.287459e-02 7.287459e-02 0.9973 -14.4477 14.0531)" class="st21" cx="185.4" cy="205" rx="177.8" ry="177.8"/>
</g>
<g id="Moon">
	<radialGradient id="SVGID_24_" cx="276.3931" cy="80.6208" r="72.0619" gradientUnits="userSpaceOnUse">
		<stop  offset="0" style="stop-color:#FFC675"/>
		<stop  offset="1" style="stop-color:#FFC675;stop-opacity:0"/>
	</radialGradient>
	<path class="st22" d="M346.5,66.5c7.9,39.3-17,77.5-55.7,85.3c-38.7,7.8-76.5-17.7-84.5-57s17-77.5,55.7-85.3
		S338.5,27.2,346.5,66.5z"/>
	<g>
		<circle class="st23" cx="278.6" cy="77.6" r="58.6"/>
		
			<radialGradient id="SVGID_25_" cx="296.8857" cy="91.4059" r="67.0747" gradientTransform="matrix(1.03 0 0 1 -19.9982 0)" gradientUnits="userSpaceOnUse">
			<stop  offset="0" style="stop-color:#F1E5AF;stop-opacity:0"/>
			<stop  offset="1" style="stop-color:#8C6239"/>
		</radialGradient>
		<ellipse class="st24" cx="280" cy="78.2" rx="59.5" ry="57.3"/>
		<g>
			
				<ellipse transform="matrix(0.197 -0.9804 0.9804 0.197 129.4171 332.6042)" class="st25" cx="267.8" cy="87.3" rx="13.7" ry="9.4"/>
			
				<linearGradient id="SVGID_26_" gradientUnits="userSpaceOnUse" x1="269.2805" y1="74.2509" x2="273.8378" y2="54.8824" gradientTransform="matrix(1.0029 -1.451514e-02 -1.451514e-02 1.0722 -4.2212 21.0024)">
				<stop  offset="7.193131e-02" style="stop-color:#F5E0B1"/>
				<stop  offset="1" style="stop-color:#EAD6AD"/>
			</linearGradient>
			<path class="st26" d="M275.5,88.8C274,96,269.1,101,264.4,100s-7.3-7.5-5.9-14.6c1.4-7.1,6.4-12.1,11.1-11.2
				C274.3,75.2,276.9,81.7,275.5,88.8z"/>
			
				<radialGradient id="SVGID_27_" cx="273.3567" cy="90.464" r="13.188" fx="265.3334" fy="90.7188" gradientTransform="matrix(0.9188 0.3948 -0.4987 1.1607 67.323 -122.4557)" gradientUnits="userSpaceOnUse">
				<stop  offset="0" style="stop-color:#EAD6AD"/>
				<stop  offset="1" style="stop-color:#D1B77C"/>
			</radialGradient>
			<path class="st27" d="M274.5,89c-1.4,6.7-6.4,11.4-11.2,10.4c-4.8-1-7.6-7.2-6.3-13.9c1.4-6.7,6.4-11.4,11.2-10.4
				C273,76,275.8,82.2,274.5,89z"/>
		</g>
		<g>
			
				<ellipse transform="matrix(0.197 -0.9804 0.9804 0.197 110.6074 300.4172)" class="st25" cx="238.7" cy="82.7" rx="3.9" ry="2.7"/>
			
				<linearGradient id="SVGID_28_" gradientUnits="userSpaceOnUse" x1="242.2793" y1="63.3291" x2="243.5888" y2="57.7639" gradientTransform="matrix(1.0029 -1.451514e-02 -1.451514e-02 1.0722 -4.2212 21.0024)">
				<stop  offset="7.193131e-02" style="stop-color:#F5E0B1"/>
				<stop  offset="1" style="stop-color:#EAD6AD"/>
			</linearGradient>
			<path class="st28" d="M240.9,83.1c-0.4,2-1.8,3.5-3.2,3.2c-1.3-0.3-2.1-2.1-1.7-4.2c0.4-2,1.8-3.5,3.2-3.2
				C240.6,79.2,241.3,81.1,240.9,83.1z"/>
			
				<radialGradient id="SVGID_29_" cx="240.3138" cy="83.5945" r="3.7893" fx="238.0084" fy="83.6678" gradientTransform="matrix(0.9188 0.3948 -0.4987 1.1607 61.2128 -108.3068)" gradientUnits="userSpaceOnUse">
				<stop  offset="0" style="stop-color:#EAD6AD"/>
				<stop  offset="1" style="stop-color:#D1B77C"/>
			</radialGradient>
			<path class="st29" d="M240.6,83.2c-0.4,1.9-1.8,3.3-3.2,3c-1.4-0.3-2.2-2.1-1.8-4c0.4-1.9,1.8-3.3,3.2-3
				C240.2,79.4,241,81.2,240.6,83.2z"/>
		</g>
		<g>
			
				<ellipse transform="matrix(0.8785 -0.4778 0.4778 0.8785 -27.2398 138.5618)" class="st25" cx="258.8" cy="122.8" rx="2.7" ry="3.9"/>
			
				<linearGradient id="SVGID_30_" gradientUnits="userSpaceOnUse" x1="107.2975" y1="-118.92" x2="108.6069" y2="-124.4852" gradientTransform="matrix(0.7601 -0.6545 0.6767 0.8318 258.7803 294.6084)">
				<stop  offset="7.193131e-02" style="stop-color:#F5E0B1"/>
				<stop  offset="1" style="stop-color:#EAD6AD"/>
			</linearGradient>
			<path class="st30" d="M260.8,121.8c1,1.8,0.8,3.9-0.4,4.5c-1.2,0.7-3-0.3-4-2.1c-1-1.8-0.8-3.9,0.4-4.5
				C258,119,259.8,119.9,260.8,121.8z"/>
			
				<radialGradient id="SVGID_31_" cx="107.5835" cy="-109.8572" r="3.7893" fx="105.2781" fy="-109.784" gradientTransform="matrix(0.9581 -0.2865 0.362 1.2103 197.2961 286.2906)" gradientUnits="userSpaceOnUse">
				<stop  offset="0" style="stop-color:#EAD6AD"/>
				<stop  offset="1" style="stop-color:#D1B77C"/>
			</radialGradient>
			<path class="st31" d="M260.6,122c0.9,1.7,0.7,3.7-0.5,4.4c-1.2,0.7-3-0.2-4-1.9c-0.9-1.7-0.7-3.7,0.5-4.4S259.6,120.2,260.6,122z
				"/>
		</g>
		<g>
			
				<ellipse transform="matrix(0.4208 -0.9071 0.9071 0.4208 88.312 246.7796)" class="st25" cx="237.4" cy="54.2" rx="5.2" ry="3.5"/>
			
				<linearGradient id="SVGID_32_" gradientUnits="userSpaceOnUse" x1="309.5653" y1="86.8534" x2="311.2869" y2="79.5365" gradientTransform="matrix(0.9785 0.2204 -0.2649 1.0391 -44.4152 -101.0633)">
				<stop  offset="7.193131e-02" style="stop-color:#F5E0B1"/>
				<stop  offset="1" style="stop-color:#EAD6AD"/>
			</linearGradient>
			<path class="st32" d="M240.1,55.5c-1.2,2.5-3.4,3.9-5.1,3.1c-1.6-0.8-2-3.4-0.9-5.9s3.4-3.9,5.1-3.1
				C240.9,50.3,241.3,53,240.1,55.5z"/>
			
				<radialGradient id="SVGID_33_" cx="308.2314" cy="107.2765" r="4.9821" fx="305.2004" fy="107.3728" gradientTransform="matrix(0.801 0.5987 -0.7563 1.0119 73.4517 -237.2027)" gradientUnits="userSpaceOnUse">
				<stop  offset="0" style="stop-color:#EAD6AD"/>
				<stop  offset="1" style="stop-color:#D1B77C"/>
			</radialGradient>
			<path class="st33" d="M239.7,55.4c-1.1,2.4-3.3,3.6-5,2.8s-2.2-3.3-1.1-5.7c1.1-2.4,3.3-3.6,5-2.8
				C240.3,50.5,240.8,53.1,239.7,55.4z"/>
		</g>
		<g>
			
				<ellipse transform="matrix(0.2486 -0.9686 0.9686 0.2486 191.1964 314.5097)" class="st25" cx="298.3" cy="34" rx="3.5" ry="5.2"/>
			
				<linearGradient id="SVGID_34_" gradientUnits="userSpaceOnUse" x1="886.6877" y1="-18.0686" x2="888.4093" y2="-25.3855" gradientTransform="matrix(-3.857462e-02 1.0023 -1.0699 -7.123137e-02 309.7007 -857.298)">
				<stop  offset="7.193131e-02" style="stop-color:#F5E0B1"/>
				<stop  offset="1" style="stop-color:#EAD6AD"/>
			</linearGradient>
			<path class="st34" d="M297.6,36.9c-2.7-0.7-4.5-2.7-4-4.4c0.4-1.7,3-2.6,5.6-1.9c2.7,0.7,4.5,2.7,4,4.4
				C302.8,36.7,300.2,37.6,297.6,36.9z"/>
			
				<radialGradient id="SVGID_35_" cx="888.5604" cy="-13.5999" r="4.9821" fx="885.5294" fy="-13.5036" gradientTransform="matrix(-0.4429 0.8966 -1.1327 -0.5595 675.1127 -768.2219)" gradientUnits="userSpaceOnUse">
				<stop  offset="0" style="stop-color:#EAD6AD"/>
				<stop  offset="1" style="stop-color:#D1B77C"/>
			</radialGradient>
			<path class="st35" d="M297.6,36.5c-2.5-0.6-4.2-2.6-3.7-4.4c0.5-1.8,2.9-2.7,5.4-2.1c2.5,0.6,4.2,2.6,3.7,4.4
				S300.1,37.2,297.6,36.5z"/>
		</g>
		<g>
			<ellipse transform="matrix(0.9154 -0.4026 0.4026 0.9154 8.1593 110.5172)" class="st25" cx="267" cy="35.8" rx="6.8" ry="4.6"/>
			
				<linearGradient id="SVGID_36_" gradientUnits="userSpaceOnUse" x1="597.8821" y1="140.2411" x2="600.1315" y2="130.6815" gradientTransform="matrix(0.5886 0.8121 -0.8855 0.6047 34.5847 -533.0603)">
				<stop  offset="7.193131e-02" style="stop-color:#F5E0B1"/>
				<stop  offset="1" style="stop-color:#EAD6AD"/>
			</linearGradient>
			<path class="st36" d="M268.5,39.4c-3.3,1.4-6.7,0.9-7.7-1.3c-0.9-2.2,0.9-5.1,4.2-6.5c3.3-1.4,6.7-0.9,7.7,1.3
				C273.7,35,271.8,37.9,268.5,39.4z"/>
			
				<radialGradient id="SVGID_37_" cx="597.6091" cy="159.612" r="6.5091" fx="593.649" fy="159.7377" gradientTransform="matrix(0.2054 0.9787 -1.2364 0.2595 341.8878 -587.2734)" gradientUnits="userSpaceOnUse">
				<stop  offset="0" style="stop-color:#EAD6AD"/>
				<stop  offset="1" style="stop-color:#D1B77C"/>
			</radialGradient>
			<path class="st37" d="M268.2,39c-3.1,1.4-6.4,0.7-7.4-1.6c-1-2.2,0.7-5.1,3.8-6.5s6.4-0.7,7.4,1.6C273,34.8,271.3,37.7,268.2,39z
				"/>
		</g>
		<g>
			<ellipse transform="matrix(0.4772 -0.8788 0.8788 0.4772 96.5022 276.3096)" class="st25" cx="280.5" cy="57" rx="5.9" ry="4"/>
			
				<linearGradient id="SVGID_38_" gradientUnits="userSpaceOnUse" x1="371.433" y1="84.2484" x2="373.3846" y2="75.954" gradientTransform="matrix(0.9627 0.2817 -0.3299 1.0203 -51.6948 -130.0734)">
				<stop  offset="7.193131e-02" style="stop-color:#F5E0B1"/>
				<stop  offset="1" style="stop-color:#EAD6AD"/>
			</linearGradient>
			<path class="st38" d="M283.4,58.6c-1.5,2.7-4.1,4.2-5.9,3.2c-1.8-1-2-4-0.6-6.7c1.5-2.7,4.1-4.2,5.9-3.2S284.9,55.9,283.4,58.6z"
				/>
			
				<radialGradient id="SVGID_39_" cx="370.7509" cy="103.2702" r="5.6476" fx="367.315" fy="103.3794" gradientTransform="matrix(0.7616 0.648 -0.8187 0.9622 84.5518 -280.5707)" gradientUnits="userSpaceOnUse">
				<stop  offset="0" style="stop-color:#EAD6AD"/>
				<stop  offset="1" style="stop-color:#D1B77C"/>
			</radialGradient>
			<path class="st39" d="M283,58.6c-1.4,2.6-4,3.9-5.9,2.9c-1.9-1-2.2-3.9-0.8-6.5s4-3.9,5.9-2.9S284.4,56,283,58.6z"/>
		</g>
	</g>
</g>
<g id="Telecope">
	<g>
		<path class="st40" d="M125.3,255.5c-1.6,1.3-2.4,4-1.8,6.9c0.7,3.6,3.4,6.2,5.9,5.7l17.5-4.6c3.9-1,6.1-6.2,4.9-11.9
			c-1.2-5.8-5.4-9.9-9.4-9c-0.9,0.2-1.7,0.6-2.4,1.2L125.3,255.5z"/>
	</g>
	<path class="st41" d="M123.8,263.8c2.4-3.8,6.4-7.4,11.6-9.9c5.7-2.7,11.6-3.6,16.3-2.7c-1.2-5.7-5.4-9.6-9.4-8.8
		c-0.9,0.2-1.7,0.6-2.4,1.2l-14.7,11.9c-1.6,1.3-2.4,4-1.8,6.9C123.5,262.9,123.6,263.4,123.8,263.8z"/>
	<g>
		<path class="st42" d="M142.5,238.2c-3.5,2.7-5.2,8.5-3.9,14.6c1.6,7.8,7.2,13.2,12.6,12.1l37.4-9.9c8.3-2.1,12.9-13.3,10.5-25.4
			c-2.5-12.4-11.5-21-20.1-19.2c-1.9,0.4-3.7,1.3-5.2,2.6L142.5,238.2z"/>
	</g>
	<path class="st43" d="M139.4,255.8c5.1-8.1,13.7-15.7,24.7-21c12.2-5.8,24.8-7.6,34.8-5.7c-2.6-12.1-11.5-20.4-20-18.7
		c-1.9,0.4-3.7,1.3-5.2,2.6l-31.2,25.3c-3.5,2.7-5.2,8.5-3.9,14.6C138.8,253.9,139.1,254.9,139.4,255.8z"/>
	<g>
		<path class="st44" d="M167.6,213.6c-5.8,4.5-8.7,14.3-6.6,24.7c2.6,13.1,12.2,22.2,21.3,20.4l63.1-16.7
			c14-3.5,21.9-22.5,17.7-42.9c-4.2-20.9-19.4-35.4-33.9-32.5c-3.3,0.7-6.2,2.2-8.8,4.3L167.6,213.6z"/>
	</g>
	<path class="st45" d="M162.4,243.3c8.6-13.7,23.1-26.6,41.8-35.5c20.6-9.9,41.8-12.9,58.7-9.6c-4.5-20.4-19.4-34.5-33.7-31.6
		c-3.3,0.7-6.2,2.2-8.8,4.3l-52.8,42.7c-5.8,4.5-8.7,14.3-6.6,24.7C161.3,240,161.8,241.7,162.4,243.3z"/>
	<g>
		<path class="st46" d="M222.6,161.5c-10.7,8.2-15.9,26.1-12.1,45.1c4.8,23.9,22.2,40.6,38.9,37.2l115.3-30.5
			c25.5-6.5,39.9-41,32.4-78.4c-7.7-38.1-35.4-64.7-62-59.4c-6,1.2-11.4,3.9-16.1,7.9L222.6,161.5z"/>
	</g>
	<path class="st47" d="M213,215.2c15.6-24.9,42.1-48.4,76-64.6c37.4-18,76.1-23.4,106.9-17.5c-8.1-37.2-35.4-62.8-61.4-57.6
		c-6,1.2-11.3,3.9-16,7.9l-96.1,77.7c-10.6,8.2-15.9,26-12,45C211,209.2,211.9,212.3,213,215.2z"/>
</g>
<g id="Telecope_Lent">
	<linearGradient id="SVGID_40_" gradientUnits="userSpaceOnUse" x1="393.8948" y1="85.9021" x2="365.9234" y2="149.7613">
		<stop  offset="0" style="stop-color:#1A1A1A"/>
		<stop  offset="1" style="stop-color:#333333"/>
	</linearGradient>
	<path class="st48" d="M357,63.9c-6.1,0.8-16,4.6-21.2,7.7c31.3-4.3,65.2,22,70.6,60.8c5.4,38.9-15.6,73.9-46.9,78.2
		c5.8,1.6,11.9,2,18,1.2c31.3-4.3,52.1-40.9,46.4-81.8C418.3,89.2,388.3,59.6,357,63.9z"/>
	<path class="st49" d="M368.1,211.6c-26.9,5.4-55-21.8-62.9-60.8c-7.9-39,1.1-72.4,37.1-86.1C357,59.1,394.9,206.2,368.1,211.6z"/>
	
		<radialGradient id="SVGID_41_" cx="385.9235" cy="145.7649" r="72.522" gradientTransform="matrix(1.1533 -0.2331 0.2098 1.0382 -86.9278 71.4093)" gradientUnits="userSpaceOnUse">
		<stop  offset="1.522030e-02" style="stop-color:#00FFFF"/>
		<stop  offset="2.223306e-02" style="stop-color:#00F8F9"/>
		<stop  offset="6.691039e-02" style="stop-color:#02CFD6"/>
		<stop  offset="0.1171" style="stop-color:#04A9B5"/>
		<stop  offset="0.1717" style="stop-color:#058999"/>
		<stop  offset="0.2321" style="stop-color:#066D82"/>
		<stop  offset="0.3003" style="stop-color:#07576F"/>
		<stop  offset="0.38" style="stop-color:#084661"/>
		<stop  offset="0.4785" style="stop-color:#093B56"/>
		<stop  offset="0.6166" style="stop-color:#093451"/>
		<stop  offset="1" style="stop-color:#09324F"/>
	</radialGradient>
	<path class="st50" d="M414.7,128.6c7.6,37.7-16.3,74.3-39.3,79c-23,4.6-47.8-22.1-55.4-59.8c-7.6-37.7,4.9-72,27.9-76.7
		S407.1,90.9,414.7,128.6z"/>
	
		<radialGradient id="SVGID_42_" cx="368.2846" cy="141.571" r="31.2507" gradientTransform="matrix(1.2023 -0.3099 0.5709 1.8775 -158.3353 -14.8969)" gradientUnits="userSpaceOnUse">
		<stop  offset="0" style="stop-color:#00FFFF"/>
		<stop  offset="1" style="stop-color:#FFFFFF;stop-opacity:0"/>
	</radialGradient>
	<path class="st51" d="M409.2,126.1c7.5,37-6.2,71-30.5,75.9c-24.3,4.9-50.1-21.1-57.6-58.1s8.6-67.6,32.9-72.5
		C378.4,66.5,401.8,89.1,409.2,126.1z"/>
	
		<radialGradient id="SVGID_43_" cx="366.6857" cy="136.6583" r="65.5354" gradientTransform="matrix(1.0673 0 0 1.0123 -20.9016 -2.02)" gradientUnits="userSpaceOnUse">
		<stop  offset="0" style="stop-color:#808080"/>
		<stop  offset="0.2056" style="stop-color:#7B7B7B"/>
		<stop  offset="0.4536" style="stop-color:#6C6C6C"/>
		<stop  offset="0.7234" style="stop-color:#545454"/>
		<stop  offset="1" style="stop-color:#333333"/>
	</radialGradient>
	<path class="st52" d="M427.6,123.7c-8.8-41.2-47.5-67.6-76.8-61.9c-29.2,5.6-45.8,43.5-37.1,84.7c8.8,41.2,39.6,70,68.8,64.4
		C411.9,205.3,436.4,164.9,427.6,123.7z M385.4,201.8c-26.5,5.1-54.2-20.1-61.9-56.3c-7.7-36.2,7.5-69.6,34-74.7
		c26.5-5.1,57.4,20.2,65.1,56.3C430.2,163.3,411.8,196.7,385.4,201.8z"/>
	
		<radialGradient id="SVGID_44_" cx="368.2262" cy="103.106" r="35.0822" gradientTransform="matrix(-0.1245 -0.9192 2.337 -0.3977 176.3903 527.3306)" gradientUnits="userSpaceOnUse">
		<stop  offset="0" style="stop-color:#00FF00"/>
		<stop  offset="0.1413" style="stop-color:#00FF00;stop-opacity:0.8587"/>
		<stop  offset="1" style="stop-color:#00FF00;stop-opacity:0"/>
	</radialGradient>
	<path class="st53" d="M403.4,128.1c5.3,26.4-7.1,51.1-27.8,55.3s-41.8-13.8-47.1-40.1s7.1-51.1,27.8-55.3
		C376.9,83.8,398,101.8,403.4,128.1z"/>
	
		<radialGradient id="SVGID_45_" cx="370.19" cy="144.3439" r="42.2744" gradientTransform="matrix(0.8588 -0.1736 0.2097 1.0377 32.2821 48.1284)" gradientUnits="userSpaceOnUse">
		<stop  offset="0" style="stop-color:#FFFFFF"/>
		<stop  offset="1" style="stop-color:#FFFFFF;stop-opacity:0"/>
	</radialGradient>
	<path class="st54" d="M411.3,127.4c5.5,27.4-3.8,52.4-20.8,55.8s-35.3-16-40.9-43.4c-5.5-27.4,3.8-52.4,20.8-55.8
		S405.8,100,411.3,127.4z"/>
	
		<radialGradient id="SVGID_46_" cx="388.4863" cy="202.9579" r="43.0568" gradientTransform="matrix(1.1348 -6.669928e-02 -6.669928e-02 0.8183 -44.6871 54.1117)" gradientUnits="userSpaceOnUse">
		<stop  offset="0" style="stop-color:#662D91"/>
		<stop  offset="1" style="stop-color:#662D91;stop-opacity:0"/>
	</radialGradient>
	<path class="st55" d="M405.4,145.5c5.5,27.1-6.2,52.4-26.2,56.4s-40.5-14.7-46-41.8c-5.5-27.1,6.2-52.4,26.2-56.4
		S400,118.4,405.4,145.5z"/>
	
		<radialGradient id="SVGID_47_" cx="347.9529" cy="-32.0373" r="43.0568" gradientTransform="matrix(-1.1194 0.1978 -2.861169e-02 -0.8205 752.296 13.8463)" gradientUnits="userSpaceOnUse">
		<stop  offset="0" style="stop-color:#00FF00"/>
		<stop  offset="0.1101" style="stop-color:#13D81B;stop-opacity:0.8899"/>
		<stop  offset="0.2759" style="stop-color:#2CA53E;stop-opacity:0.7241"/>
		<stop  offset="0.4391" style="stop-color:#417A5C;stop-opacity:0.5609"/>
		<stop  offset="0.5961" style="stop-color:#515873;stop-opacity:0.4039"/>
		<stop  offset="0.7453" style="stop-color:#5D4084;stop-opacity:0.2547"/>
		<stop  offset="0.8835" style="stop-color:#64328E;stop-opacity:0.1165"/>
		<stop  offset="1" style="stop-color:#662D91;stop-opacity:0"/>
	</radialGradient>
	<path class="st56" d="M339.8,149.3c-8.6-26.3,0.1-52.7,19.5-59c19.3-6.3,42,9.9,50.5,36.2s-0.1,52.7-19.5,59
		C371,191.8,348.4,175.6,339.8,149.3z"/>
	
		<radialGradient id="SVGID_48_" cx="370.8991" cy="157.2384" r="43.0568" gradientTransform="matrix(1.1297 -9.190460e-02 -9.190460e-02 0.6936 -39.307 80.7289)" gradientUnits="userSpaceOnUse">
		<stop  offset="0" style="stop-color:#FFFF00"/>
		<stop  offset="1" style="stop-color:#FFFF00;stop-opacity:0"/>
	</radialGradient>
	<path class="st57" d="M397.8,139.9c4.6,22.7-7.8,44.4-27.8,48.5c-19.9,4-39.8-11.1-44.4-33.9c-4.6-22.7,7.8-44.4,27.8-48.5
		C373.4,102,393.2,117.2,397.8,139.9z"/>
	
		<radialGradient id="SVGID_49_" cx="369.618" cy="129.7084" r="43.0568" gradientTransform="matrix(1.1348 -6.669928e-02 -6.669928e-02 0.8183 -44.6871 54.1117)" gradientUnits="userSpaceOnUse">
		<stop  offset="0" style="stop-color:#00FFFF"/>
		<stop  offset="1" style="stop-color:#00FFFF;stop-opacity:0"/>
	</radialGradient>
	<path class="st58" d="M398.4,118.1c5.5,27.1-6.2,52.4-26.2,56.4s-40.5-14.7-46-41.8c-5.5-27.1,6.2-52.4,26.2-56.4
		S392.9,91,398.4,118.1z"/>
	
		<radialGradient id="SVGID_50_" cx="530.4646" cy="174.3958" r="4.7777" gradientTransform="matrix(0.7071 0.7071 -0.7071 0.7071 114.1165 -339.6488)" gradientUnits="userSpaceOnUse">
		<stop  offset="0" style="stop-color:#FFFFFF"/>
		<stop  offset="1" style="stop-color:#FFFFFF;stop-opacity:0"/>
	</radialGradient>
	<circle class="st59" cx="365.9" cy="158.8" r="4.8"/>
	
		<radialGradient id="SVGID_51_" cx="563.2219" cy="164.7132" r="4.7777" gradientTransform="matrix(0.7071 0.7071 -0.7071 0.7071 114.1165 -339.6488)" gradientUnits="userSpaceOnUse">
		<stop  offset="0" style="stop-color:#FFFFFF"/>
		<stop  offset="1" style="stop-color:#FFFFFF;stop-opacity:0"/>
	</radialGradient>
	<circle class="st60" cx="395.9" cy="175.1" r="4.8"/>
	
		<radialGradient id="SVGID_52_" cx="503.1512" cy="161.5539" r="2.9342" gradientTransform="matrix(0.7071 0.7071 -0.7071 0.7071 114.1165 -339.6488)" gradientUnits="userSpaceOnUse">
		<stop  offset="0" style="stop-color:#FFFFFF"/>
		<stop  offset="1" style="stop-color:#FFFFFF;stop-opacity:0"/>
	</radialGradient>
	<circle class="st61" cx="355.7" cy="130.4" r="2.9"/>
	
		<radialGradient id="SVGID_53_" cx="473.1817" cy="130.8938" r="2.9342" gradientTransform="matrix(0.7071 0.7071 -0.7071 0.7071 114.1165 -339.6488)" gradientUnits="userSpaceOnUse">
		<stop  offset="0" style="stop-color:#FFFFFF"/>
		<stop  offset="1" style="stop-color:#FFFFFF;stop-opacity:0"/>
	</radialGradient>
	<circle class="st62" cx="356.2" cy="87.5" r="2.9"/>
</g>
</svg>
