<?xml version="1.0" encoding="utf-8"?>
<!-- Generator: Adobe Illustrator 19.2.1, SVG Export Plug-In . SVG Version: 6.00 Build 0)  -->
<svg version="1.1" id="Capa_1" xmlns="http://www.w3.org/2000/svg" xmlns:xlink="http://www.w3.org/1999/xlink" x="0px" y="0px"
	 viewBox="0 0 112.7 141.5" style="enable-background:new 0 0 112.7 141.5;" xml:space="preserve">
<style type="text/css">
	.st0{opacity:0.3;fill:#00A6EB;}
</style>
<path class="st0" d="M104,116.8c-0.5-15.5-29.3-18.2-29.1-23.3c0.2-5.1-3.6-7.5-3.6-7.5s-3.7-3.8-0.4-7.2c2.4-2.4,4.1-9.5,4.9-13.6
	c1.4-0.2,2.6-1.3,2.7-2.7l0.7-6.2c0.2-1.7-1-3.3-2.7-3.5c-0.1,0-0.2,0-0.3,0c0-7.7,0-17.8,0-21.5c0-2.8-4-5.7-8.5-8.1
	c0.2-2.8,0.7-9.9-0.3-8.1c-0.7,1.5-6.8,2.8-10.2,3.6c-0.4-0.1-0.6-0.2-0.6-0.2S37,25.1,37,31.4c0,3.7,0,13.9,0,21.5
	c-0.1,0-0.2,0-0.3,0c-1.7,0.2-2.9,1.7-2.7,3.5l0.7,6.2c0.2,1.5,1.4,2.6,2.7,2.7c0.8,4.1,2.6,11.2,4.9,13.6c3.4,3.4-0.4,7.2-0.4,7.2
	s-3.7,2.3-3.6,7.5c0.2,5.2-28.7,7.8-29.1,23.3s-1.1,24.7-1.1,24.7h48.4H105C105.2,141.5,104.5,132.3,104,116.8z"/>
</svg>
