<?xml version="1.0" encoding="utf-8"?>
<!-- Generator: Adobe Illustrator 19.2.1, SVG Export Plug-In . SVG Version: 6.00 Build 0)  -->
<svg version="1.1" id="Capa_1" xmlns="http://www.w3.org/2000/svg" xmlns:xlink="http://www.w3.org/1999/xlink" x="0px" y="0px"
	 viewBox="0 0 121.9 101.1" style="enable-background:new 0 0 121.9 101.1;" xml:space="preserve">
<style type="text/css">
	.st0{fill:#39373A;}
	.st1{fill:#34A738;}
</style>
<g>
	<rect x="107" class="st0" width="14.9" height="75"/>
	<path class="st0" d="M37.1,48.5c0-2.1,0.2-4.1,0.6-6.1c-1.5-0.5-3.1-0.9-4.7-1.2c-8.5-2-16.9-2.7-16.9-8.1c0-4.4,4.9-5,8.3-5
		c5.4,0,9.8,1.6,10.2,7.4h5.4c1.5-3.2,3.6-6.1,6.1-8.5c-4.2-6.6-12.4-8.8-21.3-8.8c-11.7,0-23.6,3.6-23.6,17.4
		c0,9.6,8.6,12.6,17.2,14.5c10.7,2.3,16.9,3.9,16.9,8.4c0,5.3-5.5,6.9-9.8,6.9c-5.9,0-11.3-2.6-11.5-9.1H0
		c0.6,14.4,12.9,19.1,25.5,19.1c7.5,0,15-1.7,19.7-6.2C40.2,63.8,37.1,56.5,37.1,48.5"/>
	<path class="st1" d="M78.2,42.8c-1.3-6.8-4.4-10.4-11.2-10.4c-9,0-11.5,6.6-11.7,10.4H78.2z M55.2,51.3c0.4,8.5,4.8,12.3,12.6,12.3
		c5.7,0,10.2-3.3,11.1-6.3h12.4c-4,11.5-12.4,16.4-24.1,16.4c-16.2,0-26.3-10.5-26.3-25.6c0-14.6,10.6-25.7,26.3-25.7
		c17.5,0,26,13.9,25,28.9H55.2z"/>
	<path class="st0" d="M16.7,96.8H22c1.9,0,3.6-0.6,3.6-3c0-2.3-1.4-3.2-3.6-3.2h-5.4V96.8z M16.7,87.3h5c1.7,0,3-0.8,3-2.7
		c0-2.1-1.6-2.6-3.4-2.6h-4.6V87.3z M11.7,78.2h10.6c4.3,0,7.2,1.4,7.2,5.6c0,2.2-1.1,3.7-3,4.7c2.7,0.8,4.1,2.9,4.1,5.7
		c0,4.6-3.9,6.5-7.9,6.5H11.7V78.2z"/>
	<path class="st0" d="M32.5,84.4h4.2v3h0.1c0.8-2,3-3.5,5.2-3.5c0.3,0,0.7,0.1,1,0.2v4.1c-0.4-0.1-1.1-0.2-1.6-0.2
		c-3.3,0-4.4,2.4-4.4,5.2v7.3h-4.5V84.4z"/>
	<path class="st0" d="M53.9,92.7c-0.8,0.7-2.3,0.7-3.7,0.9c-1.4,0.3-2.6,0.8-2.6,2.4c0,1.7,1.3,2.1,2.7,2.1c3.5,0,3.6-2.8,3.6-3.7
		V92.7z M43.5,89.4c0.3-4.2,4-5.4,7.6-5.4c3.2,0,7.1,0.7,7.1,4.6v8.5c0,1.5,0.2,3,0.6,3.6h-4.5c-0.2-0.5-0.3-1-0.3-1.6
		c-1.4,1.5-3.5,2-5.5,2c-3.1,0-5.5-1.5-5.5-4.9c0-3.7,2.8-4.6,5.5-4.9c2.7-0.4,5.3-0.3,5.3-2.1c0-1.9-1.3-2.2-2.9-2.2
		c-1.7,0-2.8,0.7-3,2.5H43.5z"/>
	<path class="st0" d="M60.8,84.4h4.2v2.3h0.1c1.1-1.8,3.1-2.7,5-2.7c4.7,0,5.9,2.7,5.9,6.7v10h-4.5v-9.2c0-2.7-0.8-4-2.9-4
		c-2.4,0-3.5,1.4-3.5,4.7v8.5h-4.5V84.4z"/>
	<path class="st0" d="M89.6,90.1c-0.3-1.8-1.4-2.8-3.3-2.8c-2.9,0-3.8,2.9-3.8,5.3c0,2.3,0.9,5.1,3.7,5.1c2.1,0,3.3-1.3,3.6-3.3h4.3
		c-0.6,4.3-3.6,6.7-7.8,6.7c-4.9,0-8.2-3.5-8.2-8.3c0-5.1,3-8.8,8.3-8.8c3.8,0,7.4,2,7.6,6.2H89.6z"/>
	<path class="st0" d="M95.6,78.2h4.5v8.5h0.1c1.1-1.8,3.1-2.7,4.7-2.7c4.7,0,5.9,2.7,5.9,6.7v10h-4.5v-9.2c0-2.7-0.8-4-2.9-4
		c-2.4,0-3.5,1.4-3.5,4.7v8.5h-4.5V78.2z"/>
	<path class="st0" d="M87.9,0v27.4c5.2,5.4,8.4,12.8,8.4,21c0,8.2-3.2,15.6-8.4,21V75h14.9V0H87.9z"/>
</g>
</svg>
