<?xml version="1.0" encoding="utf-8"?>
<!-- Generator: Adobe Illustrator 19.2.1, SVG Export Plug-In . SVG Version: 6.00 Build 0)  -->
<svg version="1.1" id="Capa_1" xmlns="http://www.w3.org/2000/svg" xmlns:xlink="http://www.w3.org/1999/xlink" x="0px" y="0px"
	 viewBox="0 0 83 69" style="enable-background:new 0 0 83 69;" xml:space="preserve">
<style type="text/css">
	.st0{fill:#FFFFFF;}
	.st1{fill:#34A738;}
</style>
<g>
	<rect x="71.9" y="1.1" class="st0" width="9.8" height="49.5"/>
	<path class="st0" d="M25.8,33.1c0-1.4,0.1-2.7,0.4-4c-1-0.3-2-0.6-3.1-0.8C17.4,27,11.9,26.5,11.9,23c0-2.9,3.2-3.3,5.5-3.3
		c3.6,0,6.5,1.1,6.7,4.9h3.6c1-2.1,2.4-4,4-5.6c-2.8-4.4-8.2-5.8-14.1-5.8c-7.7,0-15.6,2.4-15.6,11.5c0,6.3,5.7,8.3,11.3,9.6
		c7.1,1.5,11.2,2.6,11.2,5.5c0,3.5-3.6,4.6-6.5,4.6c-3.9,0-7.5-1.7-7.6-6H1.3c0.4,9.5,8.5,12.6,16.8,12.6c4.9,0,9.9-1.1,13-4.1
		C27.8,43.2,25.8,38.4,25.8,33.1"/>
	<path class="st1" d="M52.9,29.4c-0.9-4.5-2.9-6.9-7.4-6.9c-5.9,0-7.6,4.4-7.7,6.9C37.8,29.4,52.9,29.4,52.9,29.4z M37.7,35
		c0.3,5.6,3.2,8.1,8.3,8.1c3.8,0,6.7-2.2,7.3-4.2h8.2c-2.6,7.6-8.2,10.8-15.9,10.8c-10.7,0-17.4-6.9-17.4-16.9c0-9.6,7-17,17.4-17
		c11.5,0,17.2,9.2,16.5,19.1C62.1,35,37.7,35,37.7,35z"/>
	<path class="st0" d="M12.3,65h3.5c1.3,0,2.4-0.4,2.4-2c0-1.5-0.9-2.1-2.4-2.1h-3.6L12.3,65L12.3,65z M12.3,58.7h3.3
		c1.1,0,2-0.5,2-1.8c0-1.4-1.1-1.7-2.2-1.7h-3V58.7z M9,52.7h7c2.8,0,4.8,0.9,4.8,3.7c0,1.5-0.7,2.4-2,3.1c1.8,0.5,2.7,1.9,2.7,3.8
		c0,3-2.6,4.3-5.2,4.3H9V52.7z"/>
	<path class="st0" d="M22.7,56.8h2.8v2h0.1c0.5-1.3,2-2.3,3.4-2.3c0.2,0,0.5,0.1,0.7,0.1v2.7c-0.3-0.1-0.7-0.1-1.1-0.1
		c-2.2,0-2.9,1.6-2.9,3.4v4.8h-3V56.8z"/>
	<path class="st0" d="M36.8,62.3c-0.5,0.5-1.5,0.5-2.4,0.6c-0.9,0.2-1.7,0.5-1.7,1.6c0,1.1,0.9,1.4,1.8,1.4c2.3,0,2.4-1.8,2.4-2.4
		V62.3z M30,60.1c0.2-2.8,2.6-3.6,5-3.6c2.1,0,4.7,0.5,4.7,3v5.6c0,1,0.1,2,0.4,2.4h-3c-0.1-0.3-0.2-0.7-0.2-1.1
		c-0.9,1-2.3,1.3-3.6,1.3c-2,0-3.6-1-3.6-3.2c0-2.4,1.8-3,3.6-3.2c1.8-0.3,3.5-0.2,3.5-1.4c0-1.3-0.9-1.5-1.9-1.5
		c-1.1,0-1.8,0.5-2,1.6L30,60.1L30,60.1z"/>
	<path class="st0" d="M41.4,56.8h2.8v1.5h0.1c0.7-1.2,2-1.8,3.3-1.8c3.1,0,3.9,1.8,3.9,4.4v6.6h-3v-6.1c0-1.8-0.5-2.6-1.9-2.6
		c-1.6,0-2.3,0.9-2.3,3.1v5.6h-3V56.8H41.4z"/>
	<path class="st0" d="M60.4,60.6c-0.2-1.2-0.9-1.8-2.2-1.8c-1.9,0-2.5,1.9-2.5,3.5c0,1.5,0.6,3.4,2.4,3.4c1.4,0,2.2-0.9,2.4-2.2h2.8
		c-0.4,2.8-2.4,4.4-5.1,4.4c-3.2,0-5.4-2.3-5.4-5.5c0-3.4,2-5.8,5.5-5.8c2.5,0,4.9,1.3,5,4.1L60.4,60.6L60.4,60.6z"/>
	<path class="st0" d="M64.4,52.7h3v5.6h0.1c0.7-1.2,2-1.8,3.1-1.8c3.1,0,3.9,1.8,3.9,4.4v6.6h-3v-6.1c0-1.8-0.5-2.6-1.9-2.6
		c-1.6,0-2.3,0.9-2.3,3.1v5.6h-3V52.7H64.4z"/>
	<path class="st0" d="M59.3,1.1v18.1c3.4,3.6,5.5,8.4,5.5,13.9s-2.1,10.3-5.5,13.9v3.7h9.8V1.1H59.3z"/>
</g>
</svg>
