<?xml version="1.0" encoding="utf-8"?>
<!-- Generator: Adobe Illustrator 19.2.1, SVG Export Plug-In . SVG Version: 6.00 Build 0)  -->
<svg version="1.1" id="Capa_1" xmlns="http://www.w3.org/2000/svg" xmlns:xlink="http://www.w3.org/1999/xlink" x="0px" y="0px"
	 viewBox="0 0 1170 446.3" style="enable-background:new 0 0 1170 446.3;" xml:space="preserve">
<style type="text/css">
	.st0{fill:url(#SVGID_1_);}
	.st1{fill:none;stroke:#34A839;stroke-width:2;stroke-miterlimit:10;}
	.st2{display:none;}
	.st3{display:inline;}
	.st4{opacity:0.5;fill:#662D91;enable-background:new    ;}
</style>
<g id="Capa_1_1_">
	<g>
		
			<linearGradient id="SVGID_1_" gradientUnits="userSpaceOnUse" x1="-31.4894" y1="255.5522" x2="1278.5106" y2="255.5522" gradientTransform="matrix(1 0 0 1 0 -38)">
			<stop  offset="0" style="stop-color:#FFFFFF"/>
			<stop  offset="0.5" style="stop-color:#C3E1F9"/>
			<stop  offset="1" style="stop-color:#FFFFFF"/>
		</linearGradient>
		<path class="st0" d="M1172.5,0c-13.2,0.3-144.7,25.1-157.8,26.9L777.6,61.1c-13,1.9-34.5,5-47.5,6.8L619.6,83.6
			c-13,1.8-34.4,5.4-47.4,7.8l-114.1,21.4c-13,2.4-34.2,6.8-47,9.7l-104,23.4c-12.9,2.9-33.4,9.2-45.8,14.1l-116.5,45.8
			c-12.3,4.8-33.1,8.8-46.3,8.9l-106.1,3.7c-13.2,0.1-24,10.9-24,24.1v179.8c0,13.2,10.8,24,24,24h1262c13.2,0,24-10.8,24-24V12.2
			c0-13.2-10.8-23.8-24-23.4L1172.5,0z"/>
	</g>
	<g>
		<path class="st1" d="M-31.5,218.5l130.1-2.2c13.2,0,34.1-4,46.3-8.8l116.4-45.7c12.3-4.8,32.9-11.1,45.8-14.1l104-23.4
			c12.9-2.9,34-7.3,47-9.7l114.1-21.4c13-2.4,34.2-5.9,47.4-7.8L730,69.6c13-1.8,34.4-5,47.5-7l237.3-35.6
			c13-1.9,144.6-26.8,157.8-27.1l106-11.8"/>
	</g>
	<g id="Capa_2" class="st2">
		<g class="st3">
			<rect x="-29.5" y="-1.7" class="st4" width="936" height="448"/>
			<rect x="-16.7" y="-1.7" class="st4" width="49.6" height="448"/>
			<rect x="61.7" y="-1.7" class="st4" width="49.6" height="448"/>
			<rect x="140.1" y="-1.7" class="st4" width="49.6" height="448"/>
			<rect x="218.5" y="-1.7" class="st4" width="49.6" height="448"/>
			<rect x="296.9" y="-1.7" class="st4" width="49.6" height="448"/>
			<rect x="375.3" y="-1.7" class="st4" width="49.6" height="448"/>
			<rect x="453.7" y="-1.7" class="st4" width="49.6" height="448"/>
			<rect x="532.1" y="-1.7" class="st4" width="49.6" height="448"/>
			<rect x="610.5" y="-1.7" class="st4" width="49.6" height="448"/>
			<rect x="688.9" y="-1.7" class="st4" width="49.6" height="448"/>
			<rect x="767.3" y="-1.7" class="st4" width="49.6" height="448"/>
			<rect x="845.7" y="-1.7" class="st4" width="49.6" height="448"/>
		</g>
	</g>
</g>
</svg>
