<?xml version="1.0" encoding="utf-8"?>
<!-- Generator: Adobe Illustrator 19.2.1, SVG Export Plug-In . SVG Version: 6.00 Build 0)  -->
<svg version="1.1" id="Capa_1" xmlns="http://www.w3.org/2000/svg" xmlns:xlink="http://www.w3.org/1999/xlink" x="0px" y="0px"
	 viewBox="0 0 3000 560" style="enable-background:new 0 0 3000 560;" xml:space="preserve">
<style type="text/css">
	.st0{fill:url(#SVGID_1_);}
	.st1{fill:none;stroke:#34A839;stroke-width:3;stroke-miterlimit:10;}
	.st2{display:none;}
	.st3{display:inline;}
	.st4{opacity:0.5;fill:#662D91;enable-background:new    ;}
	.st5{display:inline;fill:#2F3D48;}
	.st6{font-family:'Titillium-Regular';}
	.st7{font-size:18px;}
	.st8{display:inline;fill:#FFFFFF;stroke:#34A839;stroke-width:3;stroke-miterlimit:10;}
</style>
<g id="Capa_1_1_">
	<g>
		
			<linearGradient id="SVGID_1_" gradientUnits="userSpaceOnUse" x1="0" y1="324.5931" x2="3000" y2="324.5931" gradientTransform="matrix(1 0 0 1 0 -38)">
			<stop  offset="0.2" style="stop-color:#FFFFFF"/>
			<stop  offset="0.5" style="stop-color:#C3E1F9"/>
			<stop  offset="0.8" style="stop-color:#FFFFFF"/>
		</linearGradient>
		<path class="st0" d="M2320,30.8c-16.5,0.4-43.4,2.7-59.7,5l-296.5,42.7c-16.3,2.4-43.1,6.2-59.4,8.5l-138.1,19.7
			c-16.3,2.3-43,6.7-59.2,9.8l-139.6,26.8c-16.2,3-42.7,8.5-58.7,12.1l-130,29.3c-16.1,3.6-41.8,11.5-57.2,17.6L1176,259.5
			c-15.4,6-41.4,11-57.9,11.1L30,275.2c-16.5,0.1-30,13.6-30,30.1V530c0,16.5,13.5,30,30,30h2940c16.5,0,30-13.5,30-30V42.4
			c0-16.5-13.5-29.7-30-29.2L2320,30.8z"/>
	</g>
	<g>
		<path class="st1" d="M0,275.3l1118.1-2.7c16.5,0,42.6-5,57.9-11l145.5-57.1c15.4-6,41.1-13.9,57.2-17.6l130-29.3
			c16.1-3.6,42.5-9.1,58.7-12.1l139.6-26.8c16.2-3,42.8-7.4,59.2-9.8l138.1-19.7c16.3-2.3,43-6.2,59.4-8.7L2260.3,36
			c16.3-2.4,43.2-4.8,59.7-5.2l680-18.4"/>
	</g>
	<g id="Capa_2" class="st2">
		<g class="st3">
			<rect x="915" class="st4" width="1170" height="560"/>
			<rect x="931" class="st4" width="62" height="560"/>
			<rect x="1029" class="st4" width="62" height="560"/>
			<rect x="1127" class="st4" width="62" height="560"/>
			<rect x="1225" class="st4" width="62" height="560"/>
			<rect x="1323" class="st4" width="62" height="560"/>
			<rect x="1421" class="st4" width="62" height="560"/>
			<rect x="1519" class="st4" width="62" height="560"/>
			<rect x="1617" class="st4" width="62" height="560"/>
			<rect x="1715" class="st4" width="62" height="560"/>
			<rect x="1813" class="st4" width="62" height="560"/>
			<rect x="1911" class="st4" width="62" height="560"/>
			<rect x="2009" class="st4" width="62" height="560"/>
		</g>
	</g>
</g>
<g id="Capa_2_1_" class="st2">
	<text transform="matrix(1 0 0 1 1284.8152 167.4111)" class="st5 st6 st7">2010</text>
	<text transform="matrix(1 0 0 1 1481.8403 125.419)" class="st5 st6 st7">2012</text>
	<text transform="matrix(1 0 0 1 1676.8208 87.8599)" class="st5 st6 st7">2013</text>
	<text transform="matrix(1 0 0 1 1872.8008 60.419)" class="st5 st6 st7">2015</text>
	<circle class="st8" cx="1108.5" cy="268.7" r="11"/>
	<circle class="st8" cx="1502" cy="150.7" r="11"/>
	<circle class="st8" cx="1697" cy="114.3" r="11"/>
	<circle class="st8" cx="1304" cy="195.1" r="11"/>
	<circle class="st8" cx="1893" cy="84.9" r="11"/>
	<text transform="matrix(1 0 0 1 1088.3811 242.9053)" class="st5 st6 st7">2009</text>
</g>
</svg>
