<?xml version="1.0" encoding="utf-8"?>
<!-- Generator: Adobe Illustrator 19.2.1, SVG Export Plug-In . SVG Version: 6.00 Build 0)  -->
<svg version="1.1" id="Capa_1" xmlns="http://www.w3.org/2000/svg" xmlns:xlink="http://www.w3.org/1999/xlink" x="0px" y="0px"
	 viewBox="0 0 992 394.3" style="enable-background:new 0 0 992 394.3;" xml:space="preserve">
<style type="text/css">
	.st0{fill:url(#SVGID_1_);stroke:url(#SVGID_2_);stroke-miterlimit:10;}
	.st1{fill:none;stroke:#34A839;stroke-width:2;stroke-miterlimit:10;}
	.st2{display:none;}
	.st3{display:inline;}
	.st4{fill:#2F3D48;}
	.st5{font-family:'Titillium-Regular';}
	.st6{font-size:9.4478px;}
	.st7{fill:#FFFFFF;stroke:#34A839;stroke-width:3;stroke-miterlimit:10;}
</style>
<g id="Capa_1_1_">
	<g>
		
			<linearGradient id="SVGID_1_" gradientUnits="userSpaceOnUse" x1="0" y1="439.5" x2="992" y2="439.5" gradientTransform="matrix(1 0 0 1 0 -204)">
			<stop  offset="0" style="stop-color:#FFFFFF"/>
			<stop  offset="0.5" style="stop-color:#C3E1F9"/>
			<stop  offset="1" style="stop-color:#FFFFFF"/>
		</linearGradient>
		<linearGradient id="SVGID_2_" gradientUnits="userSpaceOnUse" x1="-0.5" y1="235.493" x2="992.5" y2="235.493">
			<stop  offset="0" style="stop-color:#FFFFFF"/>
			<stop  offset="1" style="stop-color:#000000"/>
		</linearGradient>
		<path class="st0" d="M760.3,83.1c-14.8,1.4-38.9,4.3-53.5,6.5L642,99.3c-14.7,2.2-38.7,6-53.4,8.5l-66.4,11.1
			c-14.7,2.4-38.5,6.9-53,10l-60,12.7c-14.5,3.1-37.9,9.6-51.8,14.7l-81.1,29.1c-13.9,5-177.5,9.4-192.4,9.7L0,196.3v198h992V76.7
			L760.3,83.1z"/>
	</g>
	<g>
		<path class="st1" d="M-13.5,196.9l97.3-1.2c14.9-0.2,178.4-4.4,192.4-9.4l81.1-29.1c14-5,37.3-11.6,51.8-14.7l60-12.7
			c14.5-3.1,38.4-7.6,53-10l66.3-11c14.7-2.4,38.6-6.2,53.4-8.5l64.8-9.7c14.7-2.2,38.8-5.2,53.5-6.8l262.3-9.7"/>
	</g>
</g>
<g id="Capa_2_1_" class="st2">
	<g class="st3">
		<text transform="matrix(1 0 0 1 371.3896 134.4238)" class="st4 st5 st6">2010</text>
		<text transform="matrix(1 0 0 1 488.6543 110.9253)" class="st4 st5 st6">2012</text>
		<text transform="matrix(1 0 0 1 604.8467 91.2114)" class="st4 st5 st6">2013</text>
		<text transform="matrix(1 0 0 1 722.2939 73.8926)" class="st4 st5 st6">2015</text>
		<circle class="st7" cx="252.6" cy="193.4" r="5.8"/>
		<circle class="st7" cx="499.2" cy="124.3" r="5.8"/>
		<circle class="st7" cx="615.4" cy="105.1" r="5.8"/>
		<circle class="st7" cx="381.4" cy="148.9" r="5.8"/>
		<circle class="st7" cx="732.9" cy="86.7" r="5.8"/>
		<text transform="matrix(1 0 0 1 242.0405 179.8818)" class="st4 st5 st6">2009</text>
	</g>
</g>
</svg>
