<?xml version="1.0" encoding="utf-8"?>
<!-- Generator: Adobe Illustrator 19.2.1, SVG Export Plug-In . SVG Version: 6.00 Build 0)  -->
<svg version="1.1" xmlns="http://www.w3.org/2000/svg" xmlns:xlink="http://www.w3.org/1999/xlink" x="0px" y="0px"
	 viewBox="0 0 1170 218.5" style="enable-background:new 0 0 1170 218.5;" xml:space="preserve">
<style type="text/css">
	.st0{fill:none;stroke:#34A839;stroke-width:3;stroke-miterlimit:10;}
	.st1{display:none;}
	.st2{display:inline;}
	.st3{opacity:0.5;fill:#662D91;enable-background:new    ;}
	.st4{fill:#FFFFFF;stroke:#34A839;stroke-width:3;stroke-miterlimit:10;}
	.st5{opacity:0.5;fill:#662D91;}
</style>
<g id="Capa_1">
	<g id="Capa_1_1_">
		<g>
			<path class="st0" d="M-31.5,218.5l130.1-2.2c13.2,0,34.1-4,46.3-8.8l116.4-45.7c12.3-4.8,32.9-11.1,45.8-14.1l104-23.4
				c12.9-2.9,34-7.3,47-9.7l114.1-21.4c13-2.4,34.2-5.9,47.4-7.8L730,69.6c13-1.8,34.4-5,47.5-7l237.3-35.6
				c13-1.9,144.6-26.8,157.8-27.1l106-11.8"/>
		</g>
		<g id="Capa_2" class="st1">
			<g class="st2">
				<rect x="-29.5" y="-1.7" class="st3" width="936" height="448"/>
				<rect x="-16.7" y="-1.7" class="st3" width="49.6" height="448"/>
				<rect x="61.7" y="-1.7" class="st3" width="49.6" height="448"/>
				<rect x="140.1" y="-1.7" class="st3" width="49.6" height="448"/>
				<rect x="218.5" y="-1.7" class="st3" width="49.6" height="448"/>
				<rect x="296.9" y="-1.7" class="st3" width="49.6" height="448"/>
				<rect x="375.3" y="-1.7" class="st3" width="49.6" height="448"/>
				<rect x="453.7" y="-1.7" class="st3" width="49.6" height="448"/>
				<rect x="532.1" y="-1.7" class="st3" width="49.6" height="448"/>
				<rect x="610.5" y="-1.7" class="st3" width="49.6" height="448"/>
				<rect x="688.9" y="-1.7" class="st3" width="49.6" height="448"/>
				<rect x="767.3" y="-1.7" class="st3" width="49.6" height="448"/>
				<rect x="845.7" y="-1.7" class="st3" width="49.6" height="448"/>
			</g>
		</g>
	</g>
	<circle class="st4" cx="183" cy="192.2" r="11"/>
	<circle class="st4" cx="585" cy="90.7" r="11"/>
	<circle class="st4" cx="775" cy="63" r="11"/>
	<circle class="st4" cx="386" cy="129.7" r="11"/>
	<circle class="st4" cx="971" cy="34.9" r="11"/>
</g>
<g id="Capa_2_1_" class="st1">
	<g class="st2">
		<rect class="st5" width="1170" height="219"/>
		<rect x="16" class="st5" width="62" height="219"/>
		<rect x="114" class="st5" width="62" height="219"/>
		<rect x="212" class="st5" width="62" height="219"/>
		<rect x="310" class="st5" width="62" height="219"/>
		<rect x="408" class="st5" width="62" height="219"/>
		<rect x="506" class="st5" width="62" height="219"/>
		<rect x="604" class="st5" width="62" height="219"/>
		<rect x="702" class="st5" width="62" height="219"/>
		<rect x="800" class="st5" width="62" height="219"/>
		<rect x="898" class="st5" width="62" height="219"/>
		<rect x="996" class="st5" width="62" height="219"/>
		<rect x="1094" class="st5" width="62" height="219"/>
	</g>
</g>
</svg>
