<?xml version="1.0" encoding="utf-8"?>
<!-- Generator: Adobe Illustrator 19.2.1, SVG Export Plug-In . SVG Version: 6.00 Build 0)  -->
<svg version="1.1" id="Capa_1" xmlns="http://www.w3.org/2000/svg" xmlns:xlink="http://www.w3.org/1999/xlink" x="0px" y="0px"
	 viewBox="0 0 768 394.3" style="enable-background:new 0 0 768 394.3;" xml:space="preserve">
<style type="text/css">
	.st0{fill:none;stroke:#22B238;stroke-width:2;stroke-miterlimit:10;}
	.st1{display:none;}
	.st2{display:inline;}
	.st3{fill:#2F3D48;}
	.st4{font-family:'Titillium-Regular';}
	.st5{font-size:9.4478px;}
	.st6{fill:#FFFFFF;stroke:#34A839;stroke-width:3;stroke-miterlimit:10;}
</style>
<g id="Capa_1_1_">
	<g>
		<path class="st0" d="M-125.5,126.9l97.3-1.2c14.9-0.2,178.4-4.4,192.4-9.4l81.1-29.1c14-5,37.3-11.6,51.8-14.7l60-12.7
			c14.5-3.1,38.4-7.6,53-10l66.3-11c14.7-2.4,38.6-6.2,53.4-8.5l64.8-9.7c14.7-2.2,38.8-5.2,53.5-6.8l262.3-9.7"/>
	</g>
</g>
<g id="Capa_2_1_" class="st1">
	<g class="st2">
		<text transform="matrix(1 0 0 1 259.3896 134.4238)" class="st3 st4 st5">2010</text>
		<text transform="matrix(1 0 0 1 376.6543 110.9253)" class="st3 st4 st5">2012</text>
		<text transform="matrix(1 0 0 1 492.8467 91.2114)" class="st3 st4 st5">2013</text>
		<text transform="matrix(1 0 0 1 610.2939 73.8926)" class="st3 st4 st5">2015</text>
		<circle class="st6" cx="140.6" cy="193.4" r="5.8"/>
		<circle class="st6" cx="387.2" cy="124.3" r="5.8"/>
		<circle class="st6" cx="503.4" cy="105.1" r="5.8"/>
		<circle class="st6" cx="269.4" cy="148.9" r="5.8"/>
		<circle class="st6" cx="620.9" cy="86.7" r="5.8"/>
		<text transform="matrix(1 0 0 1 130.0405 179.8818)" class="st3 st4 st5">2009</text>
	</g>
</g>
</svg>
