<?xml version="1.0" encoding="utf-8"?>
<!-- Generator: Adobe Illustrator 19.2.1, SVG Export Plug-In . SVG Version: 6.00 Build 0)  -->
<svg version="1.1" id="Capa_1" xmlns="http://www.w3.org/2000/svg" xmlns:xlink="http://www.w3.org/1999/xlink" x="0px" y="0px"
	 viewBox="0 0 112.7 141.5" style="enable-background:new 0 0 112.7 141.5;" xml:space="preserve">
<style type="text/css">
	.st0{opacity:0.3;fill:#00A6EB;}
</style>
<path class="st0" d="M101.6,119.9C98,100.6,82,98.7,74.9,96.6S67.2,79.5,68,80.8c0.8,1.2,8.8,0.4,7.1,0.4c-1.7,0-2.4-7.3-1.1-4.1
	c1.3,3.2,12.6-3,9-3.2s-4.1-4.5-4.1-6S83,70,83,46.5c0-21.6-16.8-25.3-26.6-25.3c-6.3,0-4.1,0.4-4.7,3.4c0,0-21.8-1.5-22,22
	s4.1,19.9,4.1,21.4s-0.6,5.8-4.1,6c-3.6,0.2,7.7,6.4,9,3.2c1.3-3.2,0.6,4.1-1.1,4.1c-1.7,0,6.4,0.8,7.1-0.4
	c0.8-1.2,0.2,13.8-6.9,15.8c-7.1,2.1-23.1,3.9-26.6,23.3c-3.6,19.3-2.8,20.8-2.3,21.6h47.5h47.5
	C104.4,140.7,105.1,139.2,101.6,119.9z"/>
</svg>
