<?xml version="1.0" encoding="utf-8"?>
<!-- Generator: Adobe Illustrator 19.2.1, SVG Export Plug-In . SVG Version: 6.00 Build 0)  -->
<svg version="1.1" id="Capa_3" xmlns="http://www.w3.org/2000/svg" xmlns:xlink="http://www.w3.org/1999/xlink" x="0px" y="0px"
	 viewBox="0 0 144 144" style="enable-background:new 0 0 144 144;" xml:space="preserve">
<style type="text/css">
	.st0{fill:#2D1152;}
	.st1{fill:#FFFFFF;}
</style>
<rect x="-8.5" y="-10.8" class="st0" width="166.7" height="170.2"/>
<g>
	<path class="st1" d="M125.7,59.5L125.7,59.5L125.7,59.5c0,0-0.2,0-0.4,0c-0.8,0-1.6,0.5-1.6,1.7c-0.5,6.1-1,12.2-1.8,18l0,0
		c0,0,0,0,0,0c0,0,0,0,0,0l0,0c0.5-0.1,0.9,0,1.3,0.2l0,0c0.9-5.9,3.1-14.7,3.7-17.2c0.1-0.4,0.2-0.8,0.2-1.1
		C127.1,60.2,126.5,59.7,125.7,59.5z"/>
	<path class="st1" d="M67.2,61.9c0.2,3.1,0.2,6.3,0.3,9.4c-3.8,0.1-7.5,0.1-11.3,0c0-3.1,0.1-6.3,0.3-9.4c-1.1,0.3-2.2,0.3-3.4,0
		c0.3,6.7,0.3,13.5,0,20.2c1.1-0.3,2.2-0.3,3.4,0l0,0l0,0c-0.2-3.1-0.2-6.3-0.3-9.4c3.8-0.1,7.5-0.1,11.3,0c0,3.1-0.1,6.3-0.3,9.4
		l0,0l0,0c1.1-0.3,2.3-0.3,3.4,0c-0.3-6.7-0.3-13.4,0-20.2C69.4,62.2,68.3,62.2,67.2,61.9z"/>
	<path class="st1" d="M43.2,61.9L43.2,61.9L43.2,61.9c-0.8,0.3-1.5,0.3-2.3,0l0,0c-2.7,6.8-5.8,14.5-8.6,20.2h0l0,0l0,0c0,0,0,0,0,0
		l0,0l0,0c1.3-0.3,2.5-0.2,3.3,0c0,0,0,0,0,0l0,0c0.7-1.8,1.5-3.9,2.3-5.9l0,0c2.8-0.1,5.5-0.1,8.3,0l0,0c0.8,2,1.6,3.9,2.3,5.9l0,0
		c1.2-0.3,2.5-0.2,3.4,0l0,0C49.9,78.3,45.8,68.4,43.2,61.9z M42.1,65.4c1.1,3.1,2.3,6.2,3.6,9.4l0,0c-2.4,0.1-4.8,0.1-7.2,0l0,0
		C39.9,71.1,41.3,67.5,42.1,65.4z"/>
	<path class="st1" d="M37.1,59.2C37.1,59.2,37.1,59.2,37.1,59.2L37.1,59.2c-1.2,0.3-2.3,0.3-3.4,0c-1,1.8-4.5,7.5-6.7,11.2
		c-2.3-3.8-5-8.1-6.7-11.2c-1.4,0.3-2,0.3-3.4,0c2.8,4.2,7.2,12.1,8.7,14.7l-0.2,10.8c0,0,1-0.2,1.6-0.2c0.7,0,1.6,0.2,1.6,0.2
		l-0.2-10.8C31.2,69,35.9,60.9,37.1,59.2z"/>
	<path class="st1" d="M82.4,61.6c-7.1,0-10.9,4.5-10.9,10.4c0,6.4,4.1,10.3,10.9,10.3c7.3,0,10.9-4.4,10.9-10.3
		C93.3,65.6,89,61.6,82.4,61.6z M82.4,81.2c-4.8,0-7.5-3.4-7.5-9.2c0-6.5,3.4-9.1,7.4-9.2c0.1,0,0.1,0,0.2,0c4.4,0,7.6,3,7.6,9.2
		C90,78.2,86.8,81.2,82.4,81.2z"/>
	<path class="st1" d="M107,60.4c-7.1,0-12.5,4-12.5,11.5c0,6.2,3.6,11.6,12.6,11.6c7.6,0,12.6-4.2,12.6-11.5
		C119.7,65.2,115,60.4,107,60.4z M97.9,71.9c0-7.9,4.9-10.2,9.2-10.2c5.3,0,9.3,3.2,9.3,10.4c0,7.8-4.8,10.3-9.3,10.3
		C102.3,82.4,97.9,79.5,97.9,71.9z"/>
	<path class="st1" d="M121.8,81.6c-1.1,0-1.6,0.8-1.6,1.7c0,1,0.8,1.5,1.8,1.5c0.7,0,1.5-0.4,1.5-1.6
		C123.6,82.2,122.8,81.6,121.8,81.6z"/>
</g>
</svg>
